<svg width="41" height="41" viewBox="0 0 41 41" fill="none" xmlns="http://www.w3.org/2000/svg">
<path d="M20.5 0C9.19297 0 0 9.19297 0 20.5C0 31.807 9.19297 41 20.5 41C31.807 41 41 31.807 41 20.5C41 9.19297 31.807 0 20.5 0ZM20.5 39.2943C10.1379 39.2943 1.70566 30.8621 1.70566 20.5C1.70566 10.1379 10.1379 1.70566 20.5 1.70566C30.8621 1.70566 39.2943 10.1379 39.2943 20.5C39.2943 30.8621 30.8621 39.2943 20.5 39.2943Z" fill="#562C2C" fill-opacity="0.5"/>
<path d="M28.7881 12.2119C28.4518 11.8756 27.9152 11.8756 27.5789 12.2119L20.5 19.2908L13.4131 12.2039C13.0768 11.8676 12.5402 11.8676 12.2039 12.2039C11.8676 12.5402 11.8676 13.0768 12.2039 13.4131L19.2908 20.5L12.2039 27.5869C11.8676 27.9232 11.8676 28.4598 12.2039 28.7961C12.3721 28.9643 12.5883 29.0443 12.8045 29.0443C13.0207 29.0443 13.2449 28.9643 13.4051 28.7961L20.492 21.7092L27.5789 28.7961C27.7471 28.9643 27.9633 29.0443 28.1795 29.0443C28.3957 29.0443 28.6199 28.9643 28.7801 28.7961C29.1164 28.4598 29.1164 27.9232 28.7801 27.5869L21.7092 20.5L28.7961 13.4131C29.1244 13.0848 29.1244 12.5402 28.7881 12.2119Z" fill="#562C2C" fill-opacity="0.5"/>
</svg>
