<svg width="28" height="28" viewBox="0 0 28 28" fill="none" xmlns="http://www.w3.org/2000/svg">
<path d="M4.10156 28H13.2344V18.0469H9.95312V14.7656H13.2344V10.6641C13.2344 8.4 15.0719 6.5625 17.3359 6.5625H21.4375V9.84375H18.1562C17.2539 9.84375 16.5156 10.582 16.5156 11.4844V14.7656H21.2898L20.743 18.0469H16.5156V28H23.8984C26.1625 28 28 26.1625 28 23.8984V4.10156C28 1.8375 26.1625 0 23.8984 0H4.10156C1.8375 0 0 1.8375 0 4.10156V23.8984C0 26.1625 1.8375 28 4.10156 28ZM1.64062 4.10156C1.64062 2.74531 2.74531 1.64062 4.10156 1.64062H23.8984C25.2547 1.64062 26.3594 2.74531 26.3594 4.10156V23.8984C26.3594 25.2547 25.2547 26.3594 23.8984 26.3594H18.1562V19.6875H22.132L23.2258 13.125H18.1562V11.4844H23.0781V4.92188H17.3359C14.1695 4.92188 11.5938 7.49766 11.5938 10.6641V13.125H8.3125V19.6875H11.5938V26.3594H4.10156C2.74531 26.3594 1.64062 25.2547 1.64062 23.8984V4.10156Z" fill="#562C2C"/>
</svg>
