<svg width="91" height="90" viewBox="0 0 91 90" fill="none" xmlns="http://www.w3.org/2000/svg">
<g opacity="0.9" clip-path="url(#clip0)">
<path d="M33.599 46.2458L29.1631 44.7735C28.7856 44.6603 28.3704 44.6792 28.0117 44.8679L27.3133 42.0932C29.786 40.8662 31.6925 38.7333 32.5985 36.1284C32.6552 35.9774 32.674 35.8075 32.7307 35.6376H34.7315C37.242 35.6376 39.2617 33.6179 39.2617 31.1074V28.0873C39.2617 26.1808 38.0537 24.482 36.2416 23.8402V16.0068C36.2416 11.8352 32.8628 8.45642 28.6912 8.45642H16.6107C12.4391 8.45642 9.06037 11.8352 9.06037 16.0068V23.8402C7.24829 24.482 6.04024 26.1808 6.04024 28.0873V31.1074C6.04024 33.6179 8.05995 35.6376 10.5704 35.6376H12.5524C12.609 35.7886 12.6279 35.9585 12.6845 36.1284C13.6094 38.7333 15.497 40.8662 17.9698 42.0932L17.2714 44.8679C16.9127 44.6792 16.4975 44.6603 16.1199 44.7735L11.703 46.2458C4.96431 47.1896 -0.0377836 52.9845 -3.18787e-05 59.7987V85.4698C-3.18787e-05 87.9803 2.01968 90 4.53017 90H40.7718C43.2823 90 45.302 87.9803 45.302 85.4698V59.7987C45.3397 52.9845 40.3376 47.1896 33.599 46.2458ZM36.2416 31.1074C36.2416 31.938 35.562 32.6175 34.7315 32.6175H33.2214V26.5772H34.7315C35.562 26.5772 36.2416 27.2568 36.2416 28.0873V31.1074ZM12.0805 16.0068C12.0805 13.4963 14.1002 11.4766 16.6107 11.4766H28.6912C31.2017 11.4766 33.2214 13.4963 33.2214 16.0068V23.5571C33.2214 22.9153 32.8062 22.3302 32.1833 22.1225L27.6531 20.6125C27.2189 20.4615 26.7282 20.537 26.3318 20.7823L24.1422 22.2358V20.537C24.1422 19.7064 23.4626 19.0269 22.6321 19.0269C22.2357 19.0269 21.8393 19.1779 21.5562 19.461L19.5365 21.5185C19.2533 20.7635 18.4228 20.3482 17.6489 20.6125L13.1187 22.1225C12.4958 22.3302 12.0805 22.9153 12.0805 23.5571V16.0068ZM10.5704 32.6175C9.7399 32.6175 9.06037 31.938 9.06037 31.1074V28.0873C9.06037 27.2568 9.7399 26.5772 10.5704 26.5772H12.0805V32.6175H10.5704ZM15.5348 35.1091C15.2516 34.2974 15.1006 33.4669 15.1006 32.6175V24.6519L16.6107 24.1422V25.0672C16.6107 25.8977 17.2902 26.5772 18.1208 26.5772C18.5172 26.5772 18.9136 26.4262 19.1967 26.1431L21.1409 24.1989V25.086C21.1409 25.9166 21.8204 26.5961 22.651 26.5961C22.953 26.5961 23.2361 26.5017 23.4815 26.3507L27.3888 23.727L30.1824 24.6708V32.6364C30.1824 33.4858 30.0314 34.3352 29.7483 35.128C28.3704 39.0542 24.0478 41.1305 20.1216 39.7526C17.9886 38.9787 16.2898 37.2798 15.5348 35.1091ZM22.651 43.188C23.255 43.188 23.859 43.1313 24.4442 43.0181L25.5012 47.2463L22.651 50.1154L19.8007 47.2651L20.8578 43.037C21.4429 43.1313 22.0469 43.188 22.651 43.188ZM16.1954 47.9447L21.5751 53.3243C22.1602 53.9094 23.1229 53.9094 23.708 53.3243L29.0876 47.9447L30.7865 48.5109L24.8783 56.7786H20.3859L14.4966 48.5109L16.1954 47.9447ZM27.0679 75.8998L22.651 80.3167L18.234 75.8998L19.914 65.839H25.4068L27.0679 75.8998ZM20.9144 59.7987H24.3876L24.8972 62.8188H20.4047L20.9144 59.7987ZM3.0201 85.4698V77.9195H9.06037V86.9799H4.53017C3.69963 86.9799 3.0201 86.3004 3.0201 85.4698ZM40.7718 86.9799H36.2416V77.9195H42.2818V85.4698C42.2818 86.3004 41.6023 86.9799 40.7718 86.9799ZM42.2818 74.8994H34.7315C33.901 74.8994 33.2214 75.5789 33.2214 76.4094V86.9799H12.0805V76.4094C12.0805 75.5789 11.401 74.8994 10.5704 74.8994H3.0201V59.7987C2.98235 54.7777 6.49326 50.4174 11.401 49.3604L18.0453 58.6473L15.1195 76.1452C15.044 76.6171 15.195 77.1078 15.5348 77.4665L21.5751 83.5068C22.1602 84.0919 23.1229 84.0919 23.708 83.5068L29.7483 77.4665C30.0881 77.1267 30.2579 76.6359 30.1636 76.1452L27.2378 58.6473L33.8821 49.3604C38.7898 50.4174 42.3007 54.7777 42.263 59.7987V74.8994H42.2818Z" fill="#562C2C"/>
<path d="M27.1811 32.6176H24.161C24.161 33.4481 23.4815 34.1276 22.6509 34.1276C21.8204 34.1276 21.1409 33.4481 21.1409 32.6176H18.1207C18.1207 35.128 20.1404 37.1478 22.6509 37.1478C25.1614 37.1478 27.1811 35.128 27.1811 32.6176Z" fill="#562C2C"/>
<path d="M86.2626 39.0541C82.6762 38.2236 76.6925 36.8457 75.4278 33.5801C75.2768 33.1649 75.1824 32.7119 75.1824 32.2588L84.0352 35.5244C84.2051 35.581 84.375 35.6187 84.5637 35.6187C84.8657 35.6187 85.1489 35.5244 85.3943 35.3734L89.9245 32.3532C90.3397 32.0701 90.604 31.5982 90.604 31.0885V19.008C90.604 18.4984 90.3586 18.0265 89.9245 17.7433L86.6212 15.5348C88.1501 12.628 88.2256 9.17369 86.8477 6.19131C85.281 2.66153 81.9022 0.28317 78.0704 3.19518e-05C77.8251 -0.0188439 77.5797 -0.0377197 77.3154 -0.0377197C73.5214 0.0944111 70.0105 2.09525 67.9719 5.30414C65.9144 2.09525 62.4224 0.0944111 58.6283 -0.0377197C58.3641 -0.0377197 58.1187 -0.0188439 57.8356 3.19518e-05C54.0038 0.302045 50.625 2.6804 49.0772 6.19131C47.6992 9.17369 47.7747 12.628 49.3037 15.5348L46.0004 17.7433C45.5851 18.0265 45.3398 18.4984 45.3398 18.9891V31.0697C45.3398 31.5793 45.5851 32.0512 46.0193 32.3343L50.5495 35.3545C50.7949 35.5244 51.0969 35.5999 51.38 35.5999C51.5499 35.5999 51.7387 35.5621 51.9085 35.5055L60.7613 32.24C60.7613 32.693 60.6669 33.1271 60.5159 33.5424C59.2512 36.8079 53.2676 38.1859 49.6812 39.0164C46.8498 39.677 45.1321 40.0734 45.3209 41.7911C45.5096 43.4145 47.133 43.4711 49.0394 43.5277C51.2101 43.5843 54.8532 43.6976 56.1367 45.5097C56.25 45.6796 56.3444 45.8494 56.4199 46.0382C57.0994 47.5483 56.5142 49.719 56.099 51.2857C55.7026 52.758 55.2496 54.438 56.7596 55.0986C56.9861 55.193 57.2504 55.2496 57.4958 55.2496C57.7978 55.2496 58.0809 55.1741 58.3641 55.0609C60.4593 54.1359 64.3288 48.3977 66.3674 42.112C67.198 39.526 67.7454 36.8645 67.9908 34.1653C68.2361 36.8645 68.7647 39.526 69.5952 42.112C71.6527 48.3977 75.5222 54.1359 77.5986 55.0609C77.8628 55.193 78.1648 55.2496 78.4668 55.2496C78.7122 55.2496 78.9576 55.193 79.203 55.0986C80.7131 54.4191 80.26 52.758 79.8637 51.2857C79.4484 49.7001 78.8632 47.5483 79.5616 45.9816C79.6371 45.8306 79.7126 45.6796 79.807 45.5286C81.1095 43.6976 84.7525 43.5843 86.9232 43.5277C88.8297 43.4711 90.4719 43.4145 90.6418 41.7911C90.8116 40.1112 89.1128 39.7148 86.2626 39.0541ZM67.953 31.1074C64.612 31.1074 61.9127 28.4082 61.9127 25.0671C61.9127 21.7261 64.612 19.0269 67.953 19.0269C71.294 19.0269 73.9933 21.7261 73.9933 25.0671C73.9933 28.4082 71.294 31.1074 67.953 31.1074ZM87.5839 30.2958L84.375 32.4476L75.9564 29.3331C77.3909 26.6716 77.3909 23.4627 75.9564 20.8012L84.375 17.6867L87.5839 19.8385V30.2958ZM51.8142 7.47486C52.8901 4.9455 55.3062 3.24668 58.0432 3.03904C58.2319 3.02017 58.4207 3.02017 58.6095 3.02017C62.3469 3.02017 65.3481 6.13468 66.5562 9.04156C66.8771 9.81547 67.7642 10.1741 68.5382 9.85322C68.8968 9.70221 69.1988 9.4002 69.3498 9.04156C70.5579 6.13468 73.5591 3.02017 77.2965 3.02017C77.4853 3.02017 77.6741 3.03904 77.8817 3.03904C80.6187 3.24668 83.0159 4.9455 84.0918 7.47486C85.2244 9.83434 85.0168 12.5902 83.5633 14.7609L73.9744 18.3096C70.5579 15.2328 65.367 15.2328 61.9505 18.3096L52.3427 14.7609C50.8704 12.5902 50.6816 9.81547 51.8142 7.47486ZM51.531 32.4476L48.3221 30.2958V19.8385L51.531 17.6867L59.9496 20.8012C58.5151 23.4627 58.5151 26.6716 59.9496 29.3331L51.531 32.4476ZM59.6099 49.3226C59.893 47.8314 59.742 46.2836 59.1757 44.8868C59.0247 44.5093 58.8171 44.1506 58.5906 43.8297C57.458 42.3952 55.8347 41.4136 54.0226 41.0739C57.7789 39.9791 61.9316 38.1859 63.2907 34.6561C63.4794 34.1275 63.6116 33.599 63.6682 33.0327C64.0835 33.2593 64.5176 33.448 64.9706 33.599C64.763 36.185 64.2533 38.7333 63.4606 41.1871C62.5356 44.0751 61.2332 46.7932 59.6099 49.3226ZM77.2965 43.8486C77.07 44.1506 76.9001 44.4904 76.7491 44.8301C76.1829 46.2458 76.013 47.8125 76.2961 49.3226C74.6728 46.7932 73.3704 44.0562 72.4266 41.206C71.6338 38.7333 71.1241 36.185 70.9165 33.6179C71.3695 33.4669 71.8037 33.2781 72.2189 33.0516C72.2756 33.599 72.4077 34.1464 72.5965 34.6749C73.9555 38.1859 78.1082 39.9979 81.8645 41.0739C80.0713 41.4136 78.448 42.3952 77.2965 43.8486Z" fill="#562C2C"/>
</g>
<defs>
<clipPath id="clip0">
<rect width="90.6418" height="90" fill="white"/>
</clipPath>
</defs>
</svg>
