<svg width="98" height="98" viewBox="0 0 98 98" fill="none" xmlns="http://www.w3.org/2000/svg">
<g opacity="0.9" filter="url(#filter0_d)">
<path d="M23.1953 52.5059H20.2246C19.5918 50.7129 17.9043 49.5176 16.0059 49.5H8.5C6.02148 49.5 4 51.5215 4 54V85.5C4 87.9785 6.02148 90 8.5 90H16.0059C17.2715 90 18.4844 89.4551 19.3281 88.5059H56.9453C59.1426 88.5059 61.3047 87.9082 63.1856 86.748L91.293 69.6269C93.7363 68.1504 94.668 65.0566 93.4727 62.4727C92.2773 59.8887 89.3066 58.6055 86.5996 59.502C55.3281 69.9258 58.8262 68.9941 56.5586 68.9941C58.3691 63.9492 53.834 58.5 48.1562 58.5H40.3164C37.5566 58.5 34.8672 57.5508 32.7051 55.8281C29.998 53.6836 26.6406 52.5059 23.1953 52.5059ZM16.0059 86.9941H8.5C7.67383 86.9941 7.00586 86.3262 7.00586 85.5V54C7.00586 53.1738 7.67383 52.5059 8.5 52.5059H16.0059C16.832 52.5059 17.5 53.1738 17.5 54V85.5C17.5 86.3262 16.832 86.9941 16.0059 86.9941ZM48.1562 61.5059C52.1289 61.5059 55.5918 65.8125 53.2188 69.0117H44.0957C41.1426 69.0117 38.2422 69.8906 35.7812 71.5254L34.6738 72.2637C33.9883 72.7207 33.7949 73.6523 34.252 74.3379C34.709 75.0234 35.6406 75.2168 36.3262 74.7598C38.541 73.0019 41.2656 72.0352 44.0781 72.0176C58.334 72.0176 58.2109 72.1582 59.7754 71.6309L87.5488 62.3672C88.8145 61.9453 90.1855 62.543 90.7305 63.7559C91.293 64.9512 90.8535 66.3926 89.7285 67.0781L61.6035 84.1992C60.1973 85.0605 58.5801 85.5176 56.9277 85.5176H20.5059V55.4941C23.916 55.4941 27.1504 55.2305 30.8242 58.166C33.5137 60.3105 36.8711 61.4883 40.3164 61.4883L48.1562 61.5059Z" fill="#562C2C"/>
<path d="M61.0059 57.0059C74.2422 57.0059 85 46.9688 85 34.6465C85 22.623 62.9747 1.33594 62.043 0.421875C61.4629 -0.140625 60.5489 -0.140625 59.9688 0.421875C59.0196 1.31836 36.9942 22.6055 36.9942 34.6289C36.9942 46.9688 47.7696 57.0059 61.0059 57.0059ZM61.0059 3.60352C67.7207 10.248 81.9942 26.1914 81.9942 34.6465C81.9942 45.3164 72.5723 54 60.9883 54C49.4043 54 40 45.3164 40 34.6289C40 26.1738 54.291 10.248 61.0059 3.60352Z" fill="#562C2C"/>
<path d="M50.4942 39.0059H56.4883V45C56.4883 46.6523 57.8243 48.0059 59.4942 48.0059H62.5001C64.1524 48.0059 65.5059 46.6699 65.5059 45V39.0059H71.5001C73.1524 39.0059 74.5059 37.6699 74.5059 36V32.9941C74.5059 31.3418 73.17 29.9883 71.5001 29.9883H65.5059V23.9941C65.5059 22.3418 64.17 20.9883 62.5001 20.9883H59.4942C57.8419 20.9883 56.4883 22.3242 56.4883 23.9941V29.9883H50.4942C48.8419 29.9883 47.4883 31.3242 47.4883 32.9941V36C47.5059 37.6523 48.8419 39.0059 50.4942 39.0059ZM50.4942 32.9941H56.4883C58.1407 32.9941 59.4942 31.6582 59.4942 29.9883V23.9941H62.5001V29.9883C62.5001 31.6406 63.836 32.9941 65.5059 32.9941H71.5001V36H65.5059C63.8536 36 62.5001 37.3359 62.5001 39.0059V45H59.4942V39.0059C59.4942 37.3535 58.1583 36 56.4883 36H50.4942V32.9941Z" fill="#562C2C"/>
</g>
<defs>
<filter id="filter0_d" x="0" y="0" width="98" height="98" filterUnits="userSpaceOnUse" color-interpolation-filters="sRGB">
<feFlood flood-opacity="0" result="BackgroundImageFix"/>
<feColorMatrix in="SourceAlpha" type="matrix" values="0 0 0 0 0 0 0 0 0 0 0 0 0 0 0 0 0 0 127 0"/>
<feOffset dy="4"/>
<feGaussianBlur stdDeviation="2"/>
<feColorMatrix type="matrix" values="0 0 0 0 0 0 0 0 0 0 0 0 0 0 0 0 0 0 0.25 0"/>
<feBlend mode="normal" in2="BackgroundImageFix" result="effect1_dropShadow"/>
<feBlend mode="normal" in="SourceGraphic" in2="effect1_dropShadow" result="shape"/>
</filter>
</defs>
</svg>
