<svg width="90" height="90" viewBox="0 0 90 90" fill="none" xmlns="http://www.w3.org/2000/svg">
<path d="M21.0345 13.4445C21.8566 13.4445 22.5357 12.7651 22.5357 11.9427C22.5357 11.1203 21.8566 10.4409 21.0345 10.4409C20.2124 10.4409 19.5333 11.1203 19.5333 11.9427C19.5333 12.7651 20.1946 13.4445 21.0345 13.4445Z" fill="#562C2C"/>
<path d="M33.0262 13.4445C33.8483 13.4445 34.5274 12.7651 34.5274 11.9427C34.5274 11.1203 33.8483 10.4409 33.0262 10.4409C32.2041 10.4409 31.525 11.1203 31.525 11.9427C31.525 12.7651 32.2041 13.4445 33.0262 13.4445Z" fill="#562C2C"/>
<path d="M45.0357 13.4445C45.8578 13.4445 46.5369 12.7651 46.5369 11.9427C46.5369 11.1203 45.8578 10.4409 45.0357 10.4409C44.2136 10.4409 43.5345 11.1203 43.5345 11.9427C43.5345 12.7651 44.1957 13.4445 45.0357 13.4445Z" fill="#562C2C"/>
<path d="M81.1001 45.0884C76.8646 41.4769 71.5568 39.3494 66.0167 39.0276V13.4436C66.0167 9.29576 62.6569 5.95249 58.5107 5.93461H52.0949C51.5588 5.00494 50.5759 4.43283 49.5036 4.43283H44.6783C42.0334 -1.48493 23.9476 -1.48493 21.3205 4.43283H16.4952C15.423 4.43283 14.44 5.00494 13.9039 5.93461H7.50596C3.35981 5.95249 0 9.29576 0 13.4436V82.4721C0 86.6199 3.35981 89.9632 7.50596 89.9811C63.2287 89.9811 59.029 90.1241 60.6017 89.6414C71.8606 91.3935 82.9051 85.4757 87.6767 75.1062C92.4484 64.7368 89.7498 52.5079 81.1001 45.0884ZM16.4952 19.4507H49.5036C51.1656 19.4507 52.506 18.1098 52.506 16.4471V14.9453H57.0095V40.0824C53.7927 41.0836 50.7903 42.7105 48.1811 44.8559C48.1454 44.8917 48.1096 44.9275 48.0917 44.9811C47.0195 45.8929 46.0008 46.8941 45.0894 47.9668H36.0107C35.1886 47.9668 34.5095 48.6462 34.5095 49.4686C34.5095 50.291 35.1886 50.9704 36.0107 50.9704H42.9091C42.3014 51.9358 41.7653 52.937 41.3006 53.9739H36.0107C35.1886 53.9739 34.5095 54.6533 34.5095 55.4757C34.5095 56.2981 35.1886 56.9775 36.0107 56.9775H40.139C39.8352 57.9608 39.6029 58.962 39.4241 59.9811H33.0083C32.1863 59.9811 31.5071 60.6605 31.5071 61.4829C31.5071 62.3053 32.1863 62.9847 33.0083 62.9847H39.0846C38.6557 69.546 40.8181 76.0002 45.1072 80.9882H9.00715V14.9453H13.5107V16.4471C13.4929 18.1098 14.8511 19.4507 16.4952 19.4507ZM77.9547 46.465L64.5155 62.1444L51.3086 46.2683C59.2613 40.4578 70.0913 40.5294 77.9547 46.465ZM49.0032 48.1813L62.5318 64.4507L48.7708 80.5234C44.4102 76.2683 41.9619 70.4042 42.0155 64.3077C42.0691 58.2111 44.5711 52.3828 49.0032 48.1813ZM80.2244 48.3959C84.1739 52.2576 86.5508 57.4424 86.9083 62.9489H67.7681L80.2244 48.3959ZM62.9964 13.4436V39.0276C61.9956 39.0812 60.9948 39.2064 59.994 39.3673V13.4436C59.994 12.6211 59.3149 11.9418 58.4928 11.9418H52.4881V8.93819H58.4928C60.9948 8.93819 62.9964 10.9585 62.9964 13.4436ZM22.5 7.4364C23.3221 7.4364 24.0012 6.75702 24.0012 5.93461C24.0012 4.87979 27.4146 2.93104 33.0083 2.93104C38.6021 2.93104 41.9976 4.89766 41.9976 5.93461C41.9976 6.75702 42.6767 7.4364 43.4988 7.4364H49.5036V16.4471H16.4952V7.4364H22.5ZM7.50596 86.9775C5.02184 86.9775 3.00238 84.9573 3.00238 82.4721V13.4436C3.00238 10.9585 5.02184 8.93819 7.50596 8.93819H13.5107V11.9418H7.50596C6.68388 11.9418 6.00477 12.6211 6.00477 13.4436V82.4721C6.00477 83.2946 6.68388 83.9739 7.50596 83.9739H48.1096C49.4678 85.1182 50.9512 86.1372 52.5417 86.9775H7.50596ZM51.0584 82.4721L63.3896 68.0621L65.4984 86.9239C60.2979 87.1742 55.2045 85.6009 51.0584 82.4721ZM68.465 86.6021L66.1775 65.9704H86.9261C86.2291 76.2683 78.616 84.7606 68.465 86.6021Z" fill="#562C2C"/>
<path d="M13.7609 34.2014L20.5341 40.9773C21.1239 41.5673 22.0711 41.5673 22.6608 40.9773L29.4162 34.2014C31.114 32.4851 31.6322 29.9106 30.7029 27.6758C29.7736 25.441 27.5933 23.975 25.1807 23.9571C23.8939 23.9571 22.6251 24.3683 21.5885 25.1371C20.552 24.3683 19.301 23.9392 18.0143 23.9571C15.6016 23.975 13.4213 25.4231 12.492 27.6758C11.5449 29.8927 12.0452 32.4672 13.7609 34.2014ZM15.8876 27.8188C17.0671 26.6567 18.9436 26.6567 20.1231 27.8367L20.5341 28.2479C21.1239 28.8379 22.0711 28.8379 22.6608 28.2479L23.0719 27.8367C24.2514 26.7104 26.1279 26.7104 27.3074 27.8546C28.469 29.0346 28.469 30.9297 27.3074 32.0918L21.6064 37.795L15.9055 32.0918C15.3336 31.5375 15.0298 30.7688 15.0298 29.9642C15.0119 29.1597 15.3157 28.3909 15.8876 27.8188Z" fill="#562C2C"/>
<path d="M35.9928 28.4446H49.5035C50.3256 28.4446 51.0047 27.7652 51.0047 26.9428C51.0047 26.1204 50.3256 25.441 49.5035 25.441H36.0107C35.1886 25.441 34.5095 26.1204 34.5095 26.9428C34.4916 27.7831 35.1707 28.4446 35.9928 28.4446Z" fill="#562C2C"/>
<path d="M35.9928 34.4517H49.5035C50.3256 34.4517 51.0047 33.7723 51.0047 32.9499C51.0047 32.1275 50.3256 31.4481 49.5035 31.4481H36.0107C35.1886 31.4481 34.5095 32.1275 34.5095 32.9499C34.4916 33.7902 35.1707 34.4517 35.9928 34.4517Z" fill="#562C2C"/>
<path d="M33.0083 40.4589H49.5036C50.3256 40.4589 51.0047 39.7795 51.0047 38.9571C51.0047 38.1347 50.3256 37.4553 49.5036 37.4553H33.0083C32.1863 37.4553 31.5071 38.1347 31.5071 38.9571C31.5071 39.7795 32.1684 40.4589 33.0083 40.4589Z" fill="#562C2C"/>
<path d="M25.1629 46.466C23.8761 46.466 22.6073 46.8772 21.5707 47.646C20.5342 46.8772 19.2832 46.4481 17.9965 46.466C15.5838 46.4839 13.4035 47.932 12.4742 50.1847C11.5449 52.4195 12.0453 54.994 13.761 56.7103L20.5342 63.4863C21.124 64.0762 22.0711 64.0762 22.6609 63.4863L29.4163 56.7103C31.114 54.994 31.6323 52.4195 30.703 50.1847C29.7737 47.932 27.5934 46.466 25.1629 46.466ZM27.2896 54.5828L21.5886 60.286L15.8877 54.5828C15.0298 53.7246 14.7796 52.4374 15.2443 51.311C15.7089 50.1847 16.7991 49.4517 18.0143 49.4517C18.8186 49.4517 19.5692 49.7556 20.141 50.3277L20.5521 50.7389C21.1418 51.3289 22.089 51.3289 22.6788 50.7389L23.0898 50.3277C24.2693 49.2014 26.1458 49.2014 27.3253 50.3456C28.4512 51.5077 28.4512 53.4028 27.2896 54.5828Z" fill="#562C2C"/>
</svg>
