<svg width="78" height="90" viewBox="0 0 78 90" fill="none" xmlns="http://www.w3.org/2000/svg">
<path d="M41.3203 5.66016H40.3183V4.6582C40.3183 3.9375 39.7383 3.33984 39 3.33984C38.2617 3.33984 37.6816 3.91992 37.6816 4.6582V5.66016H36.6797C35.959 5.66016 35.3613 6.24023 35.3613 6.97852C35.3613 7.7168 35.9414 8.29687 36.6797 8.29687H37.6816V9.29883C37.6816 10.0195 38.2617 10.6172 39 10.6172C39.7207 10.6172 40.3183 10.0371 40.3183 9.29883V8.29687H41.3203C42.041 8.29687 42.6387 7.7168 42.6387 6.97852C42.6211 6.24023 42.041 5.66016 41.3203 5.66016Z" fill="#562C2C"/>
<path d="M77.4785 85.5L73.6464 63.0176C73.2246 60.5742 71.5019 58.6231 69.1289 57.9023L51.8847 52.6992C51.1289 52.4707 50.3378 52.5762 49.6875 52.9277C49.0722 52.3828 48.6328 51.4512 48.6328 50.5898V46.2832C48.6855 46.2481 48.7207 46.2129 48.7734 46.1602C48.8437 46.1074 48.914 46.0371 48.9843 45.9844H50.6718C53.0097 45.9844 55.1894 45.0352 56.789 43.3301C58.3886 41.625 59.1972 39.3926 59.039 37.0547L58.5644 29.6543V29.5488C58.5644 29.3555 58.5468 29.1445 58.5117 28.9512L58.0546 21.832L57.9843 20.6719C57.9316 19.9512 57.3164 19.4063 56.5957 19.4414C55.875 19.4941 55.3125 20.1094 55.3652 20.8301L55.6816 25.7344C55.33 25.6289 54.9785 25.5762 54.6093 25.5762H54.539C54.1523 24.9961 53.5195 24.5918 52.7636 24.5215C39.123 23.291 35.2031 19.2129 32.3203 16.2422C31.7226 15.627 30.7382 15.5742 29.4199 16.1016C27.0996 17.0156 23.1621 19.9688 23.0742 25.2246V25.2422V25.5762C22.8105 25.5938 22.5644 25.6465 22.3183 25.7168L22.7226 19.3184C22.9336 15.9082 24.6562 12.8672 27.3808 10.9512L27.4863 11.2148C28.1543 12.9375 29.8242 14.0977 31.6699 14.0977H46.664C48.5097 14.0977 50.1972 12.9375 50.8476 11.2148L50.8652 11.1621C52.289 12.2344 53.4316 13.623 54.205 15.2402C54.4336 15.7148 54.9082 15.9961 55.3828 15.9961C55.5761 15.9961 55.7695 15.9609 55.9453 15.873C56.5957 15.5566 56.8769 14.7832 56.5605 14.1152C56.4902 13.9746 56.4199 13.834 56.3496 13.6934C56.2968 13.5879 53.6425 9.84375 51.832 8.63086L52.7285 6.25781C53.08 5.36133 53.0097 4.35938 52.5351 3.51563C52.0781 2.67188 51.2695 2.07422 50.3203 1.88086L42.7793 0.351562C40.3535 -0.140625 37.9101 -0.140625 35.4843 0.351562L27.9433 1.88086C26.9941 2.07422 26.1855 2.67188 25.7285 3.51563C25.2714 4.35938 25.2011 5.36133 25.5351 6.25781L26.3789 8.4375C22.6699 10.793 20.332 14.7305 20.0507 19.1602L19.4355 29.0039C19.4179 29.1797 19.4004 29.3555 19.4004 29.5488V29.6543L18.9257 37.0547C18.7851 39.3926 19.5761 41.625 21.1757 43.3301C22.7754 45.0352 24.955 45.9844 27.2929 45.9844H28.9804C29.0507 46.0547 29.1211 46.1074 29.1914 46.1602C29.2441 46.1953 29.2793 46.2305 29.332 46.2832V50.5898C29.332 51.4512 28.8925 52.3828 28.2773 52.9277C27.6269 52.5762 26.8359 52.4707 26.08 52.6992L8.8359 57.9023C6.46285 58.6231 4.7402 60.5742 4.31832 63.0176L2.87692 71.4727C2.75387 72.1934 3.22848 72.8613 3.94918 72.9844C4.66988 73.1074 5.33785 72.6328 5.4609 71.9121L6.90231 63.457C7.1484 62.0156 8.18551 60.8379 9.59176 60.416L26.8359 55.2129C26.9414 55.1777 27.0644 55.2305 27.1171 55.3359L35.3437 71.5957C35.5546 72.0176 35.8359 72.4043 36.1875 72.7207C36.9257 73.4238 37.9101 73.8106 38.9648 73.8106C39.6328 73.8106 40.2832 73.6524 40.8457 73.3535C41.5839 72.9668 42.1816 72.3691 42.5683 71.5957L50.7949 55.3359C50.8476 55.2305 50.9707 55.1777 51.0761 55.2129L68.3203 60.416C69.7265 60.8379 70.7636 61.9981 71.0097 63.457L74.8418 85.9395C74.9296 86.4316 74.7011 86.7656 74.5781 86.9238C74.4375 87.082 74.1386 87.3633 73.6464 87.3633H65.5078L63.3632 74.7949C63.2402 74.0742 62.5546 73.5996 61.8515 73.7227C61.1308 73.8457 60.6562 74.5313 60.7793 75.2344L62.8535 87.3633H15.1113L17.1855 75.2344C17.3086 74.5137 16.8339 73.8457 16.1132 73.7227C15.3925 73.5996 14.7246 74.0742 14.6015 74.7949L12.4394 87.3633H4.30074C3.80856 87.3633 3.50973 87.0996 3.3691 86.9238C3.22848 86.7481 3.01754 86.4141 3.10543 85.9395L4.44137 78.1172C4.56442 77.3965 4.08981 76.7285 3.3691 76.6055C2.6484 76.4824 1.98043 76.957 1.85738 77.6777L0.503869 85.5C0.31051 86.625 0.626916 87.7676 1.34762 88.6289C2.06832 89.4902 3.15817 90 4.28317 90H73.664C74.8066 90 75.8789 89.5078 76.5996 88.6289C77.373 87.7676 77.6718 86.625 77.4785 85.5ZM28.0839 4.79883C28.1367 4.69336 28.2597 4.53516 28.5234 4.48242L36.0644 2.95313C37.084 2.74219 38.1211 2.63672 39.1757 2.63672C40.2129 2.63672 41.2675 2.74219 42.2871 2.95313L49.8281 4.48242C50.0742 4.53516 50.2148 4.71094 50.2675 4.79883C50.3203 4.9043 50.3906 5.09766 50.3027 5.34375L48.4043 10.3008C48.123 11.0215 47.4375 11.4961 46.664 11.4961H31.6699C30.914 11.4961 30.2109 11.0215 29.9296 10.3008L28.0312 5.34375C27.9433 5.09766 28.0312 4.88672 28.0839 4.79883ZM56.4199 37.2305C56.5254 38.8301 55.9628 40.377 54.873 41.5371C53.9765 42.4863 52.8164 43.1016 51.5683 43.2949C53.0097 41.502 54.4336 39.1465 54.8379 36.4395C55.3828 36.4043 55.8925 36.2637 56.3671 36.0352L56.4199 37.2305ZM23.1445 41.5371C22.0371 40.3594 21.4921 38.8301 21.5976 37.2305L21.6679 36.0527C22.125 36.2813 22.6523 36.4219 23.1972 36.457C23.6015 39.1641 25.0078 41.5195 26.4668 43.3125C25.1836 43.1016 24.0234 42.4863 23.1445 41.5371ZM40.4238 70.1016L40.2656 70.4356C40.248 70.4883 40.2129 70.5234 40.1953 70.5586C40.1953 70.5762 40.1777 70.5938 40.1777 70.5938C40.1601 70.6113 40.1425 70.6465 40.125 70.6641C40.0546 70.752 40.0019 70.8223 39.914 70.8926C39.8965 70.9102 39.8789 70.9102 39.8613 70.9277C39.6152 71.1035 39.334 71.209 39.0175 71.209C38.4726 71.209 37.998 70.9102 37.7519 70.4356L32.3027 59.6602H45.75L40.4238 70.1016ZM47.0507 57.0059H30.9316L29.9121 55.002C31.1425 53.9648 31.9863 52.2773 31.9863 50.5898V48.3223C33.709 49.4297 35.8535 50.291 38.9648 50.3262H38.9824H39C42.1113 50.291 44.2558 49.4297 45.9785 48.3223V50.5898C45.9785 52.2773 46.8222 53.9648 48.0527 55.002L47.0507 57.0059ZM47.0507 44.1738C44.625 46.2656 42.7441 47.6367 39 47.6895C35.2558 47.6367 33.3925 46.2656 30.9492 44.1738C27.7148 41.3965 25.7636 38.0039 25.6933 35.1035C25.6757 34.3828 25.0957 33.8203 24.375 33.8203H23.373C22.6347 33.8203 22.0371 33.2227 22.0371 32.4844V29.5488C22.0371 29.4961 22.0371 29.4258 22.0547 29.3731C22.0547 29.3555 22.0546 29.3379 22.0722 29.3203C22.1777 28.7051 22.7226 28.2305 23.373 28.2305H24.375C25.0957 28.2305 25.6933 27.6504 25.6933 26.9121V25.2773C25.7636 20.8301 29.5605 18.7559 30.7558 18.4219C34.6054 22.3594 39.3515 25.9277 52.3066 27.1231C52.4121 27.7383 52.957 28.2129 53.6074 28.2129H54.6093C55.2597 28.2129 55.8046 28.6875 55.9101 29.3027C55.9101 29.3203 55.9101 29.3379 55.9277 29.3555C55.9277 29.4082 55.9453 29.4785 55.9453 29.5313V32.4668C55.9453 33.2051 55.3476 33.8027 54.6093 33.8027H53.6074C52.8867 33.8027 52.3066 34.3828 52.289 35.0859C52.2363 38.0039 50.2675 41.3965 47.0507 44.1738Z" fill="#562C2C"/>
<path d="M3.05273 70.6289L1.4707 79.875L4.10742 80.1211L5.6543 71.0332" fill="#562C2C"/>
<path d="M56.5957 14.1152C56.5957 14.1152 57.8262 17.8242 58.002 20.6895C58.1778 23.5547 55.3828 20.8477 55.3828 20.8477C55.3828 20.8477 55.1367 16.8223 54.2227 15.2402C53.3086 13.6582 56.5957 14.1152 56.5957 14.1152Z" fill="#562C2C"/>
</svg>
