<svg width="28" height="28" viewBox="0 0 28 28" fill="none" xmlns="http://www.w3.org/2000/svg">
<g opacity="0.3" clip-path="url(#clip0)">
<path d="M4.12119 27.973H23.8795C26.1391 27.973 27.973 26.1391 27.973 23.8794V4.12115C27.973 1.86151 26.1391 0.0275879 23.8795 0.0275879H4.12119C1.86154 0.0275879 0.0276184 1.86151 0.0276184 4.12115V23.8794C0.0276184 26.1391 1.86154 27.973 4.12119 27.973ZM1.66505 4.12115C1.66505 2.76755 2.76758 1.66501 4.12119 1.66501H23.8795C25.2331 1.66501 26.3356 2.76755 26.3356 4.12115V23.8794C26.3356 25.233 25.2331 26.3356 23.8795 26.3356H4.12119C2.76758 26.3356 1.66505 25.233 1.66505 23.8794V4.12115Z" fill="#562C2C" stroke="#562C2C" stroke-miterlimit="10"/>
<path d="M14 21.3684C18.0609 21.3684 21.3685 18.0608 21.3685 14C21.3685 9.93919 18.0609 6.63159 14 6.63159C9.93922 6.63159 6.63162 9.93919 6.63162 14C6.63162 18.0608 9.93922 21.3684 14 21.3684ZM14 8.26902C17.1603 8.26902 19.731 10.8398 19.731 14C19.731 17.1602 17.1603 19.731 14 19.731C10.8398 19.731 8.26905 17.1602 8.26905 14C8.26905 10.8398 10.8398 8.26902 14 8.26902Z" fill="#562C2C" stroke="#562C2C" stroke-miterlimit="10"/>
<path d="M22.1872 8.26897C23.5408 8.26897 24.6433 7.16644 24.6433 5.81283C24.6433 4.45922 23.5408 3.35669 22.1872 3.35669C20.8336 3.35669 19.731 4.45922 19.731 5.81283C19.731 7.16644 20.8336 8.26897 22.1872 8.26897ZM22.1872 4.99412C22.6402 4.99412 23.0059 5.35981 23.0059 5.81283C23.0059 6.26585 22.6402 6.63154 22.1872 6.63154C21.7341 6.63154 21.3684 6.26585 21.3684 5.81283C21.3684 5.35981 21.7341 4.99412 22.1872 4.99412Z" fill="#562C2C" stroke="#562C2C" stroke-miterlimit="10"/>
</g>
<defs>
<clipPath id="clip0">
<rect width="28" height="28" fill="white"/>
</clipPath>
</defs>
</svg>
