<svg width="28" height="28" viewBox="0 0 28 28" fill="none" xmlns="http://www.w3.org/2000/svg">
<g clip-path="url(#clip0)">
<path d="M4.1214 27.973H23.8797C26.1393 27.973 27.9732 26.1391 27.9732 23.8795V4.12119C27.9732 1.86154 26.1393 0.0276184 23.8797 0.0276184H4.1214C1.86175 0.0276184 0.027832 1.86154 0.027832 4.12119V23.8795C0.027832 26.1391 1.86175 27.973 4.1214 27.973ZM1.66526 4.12119C1.66526 2.76758 2.76779 1.66505 4.1214 1.66505H23.8797C25.2333 1.66505 26.3358 2.76758 26.3358 4.12119V23.8795C26.3358 25.2331 25.2333 26.3356 23.8797 26.3356H4.1214C2.76779 26.3356 1.66526 25.2331 1.66526 23.8795V4.12119Z" fill="#562C2C" stroke="#562C2C" stroke-miterlimit="10"/>
<path d="M14.0003 21.3685C18.0611 21.3685 21.3687 18.0609 21.3687 14C21.3687 9.93922 18.0611 6.63162 14.0003 6.63162C9.93944 6.63162 6.63184 9.93922 6.63184 14C6.63184 18.0609 9.93944 21.3685 14.0003 21.3685ZM14.0003 8.26905C17.1605 8.26905 19.7313 10.8398 19.7313 14C19.7313 17.1603 17.1605 19.731 14.0003 19.731C10.84 19.731 8.26926 17.1603 8.26926 14C8.26926 10.8398 10.84 8.26905 14.0003 8.26905Z" fill="#562C2C" stroke="#562C2C" stroke-miterlimit="10"/>
<path d="M22.1871 8.269C23.5407 8.269 24.6432 7.16647 24.6432 5.81286C24.6432 4.45925 23.5407 3.35672 22.1871 3.35672C20.8335 3.35672 19.731 4.45925 19.731 5.81286C19.731 7.16647 20.8335 8.269 22.1871 8.269ZM22.1871 4.99415C22.6401 4.99415 23.0058 5.35984 23.0058 5.81286C23.0058 6.26588 22.6401 6.63157 22.1871 6.63157C21.7341 6.63157 21.3684 6.26588 21.3684 5.81286C21.3684 5.35984 21.7341 4.99415 22.1871 4.99415Z" fill="#562C2C" stroke="#562C2C" stroke-miterlimit="10"/>
</g>
<defs>
<clipPath id="clip0">
<rect width="28" height="28" fill="white"/>
</clipPath>
</defs>
</svg>
