<svg width="42" height="59" viewBox="0 0 42 59" fill="none" xmlns="http://www.w3.org/2000/svg">
<path d="M21 0C9.415 0 0 9.2976 0 20.7381C0 24.5977 1.085 28.3767 3.13833 31.6487L19.81 58.182C20.125 58.6889 20.6967 59 21.2917 59H21.3033C21.91 59 22.4817 58.6774 22.7967 58.159L39.0367 31.3722C40.9733 28.1693 42 24.494 42 20.7497C42 9.2976 32.585 0 21 0ZM36.0383 29.5864L21.2683 53.9422L6.11333 29.8168C4.41 27.0978 3.47667 23.9526 3.47667 20.7381C3.47667 11.2101 11.3517 3.43331 21 3.43331C30.6483 3.43331 38.5117 11.2101 38.5117 20.7381C38.5117 23.8604 37.6483 26.925 36.0383 29.5864Z" fill="#562C2C" fill-opacity="0.5"/>
<path d="M21 10.3691C15.2133 10.3691 10.5 15.0237 10.5 20.7382C10.5 26.4182 15.1317 31.1073 21 31.1073C26.9383 31.1073 31.5 26.3605 31.5 20.7382C31.5 15.0237 26.7867 10.3691 21 10.3691ZM21 27.674C17.115 27.674 13.9767 24.5632 13.9767 20.7382C13.9767 16.9247 17.1383 13.8025 21 13.8025C24.8617 13.8025 28.0117 16.9247 28.0117 20.7382C28.0117 24.5056 24.9433 27.674 21 27.674Z" fill="#562C2C" fill-opacity="0.5"/>
</svg>
