<svg width="30" height="27" viewBox="0 0 30 27" fill="none" xmlns="http://www.w3.org/2000/svg">
<path d="M0.515887 12.7505L7.85182 16.4068C8.13307 16.5474 8.47292 16.5357 8.74245 16.3775L15.2698 12.5806L11.3147 16.0845C11.1155 16.2661 10.9983 16.5181 10.9983 16.7876V25.3189C10.9983 26.2212 12.1467 26.5962 12.6858 25.8814L15.8557 21.6626L23.6956 26.1275C24.2464 26.4439 24.9495 26.1275 25.0784 25.4946L29.971 1.11965C30.1174 0.387231 29.3909 -0.210425 28.7112 0.0649653L0.5862 11.0337C-0.157941 11.3325 -0.210675 12.3872 0.515887 12.7505ZM27.803 2.43801L23.5022 23.8599L16.0725 19.6294C15.6682 19.4009 15.1467 19.5005 14.8596 19.8814L12.8792 22.5122V17.2095L23.5667 7.73489C24.4104 6.98489 23.4378 5.65481 22.4768 6.22317L8.23854 14.5025L3.24636 12.0181L27.803 2.43801Z" fill="#562C2C"/>
</svg>
