<svg width="22" height="22" viewBox="0 0 22 22" fill="none" xmlns="http://www.w3.org/2000/svg">
<path d="M20.2354 14.4432C18.8891 14.4432 17.5656 14.2312 16.3109 13.8188C15.6979 13.6068 14.9417 13.8016 14.5693 14.1854L12.0943 16.0531C9.22396 14.5234 7.45938 12.7531 5.94688 9.90573L7.75729 7.49375C8.22708 7.02396 8.39896 6.33646 8.19271 5.69479C7.77448 4.43438 7.56823 3.11094 7.56823 1.76458C7.56823 0.790625 6.7776 0 5.80365 0H1.76458C0.790625 0 0 0.790625 0 1.76458C0 12.925 9.075 22 20.2354 22C21.2094 22 22 21.2094 22 20.2354V16.2078C22 15.2339 21.2094 14.4432 20.2354 14.4432Z" fill="white"/>
</svg>
