<svg width="30" height="18" viewBox="0 0 30 18" fill="none" xmlns="http://www.w3.org/2000/svg">
<path d="M26.7598 11.7633L26.7422 11.7458C26.4844 11.5123 25.6992 10.7479 25.4355 10.4153C25.125 10.001 25.1953 9.72676 25.4297 9.32413C25.7227 8.81063 26.3145 8.02287 26.9355 7.1826C28.9336 4.50422 30.2227 2.65445 29.959 1.34152L29.8184 0.641292L22.4414 0.647128C22.418 0.71715 22.0312 2.40353 20.4082 5.26864C19.2305 7.34598 18.457 7.99953 18.1875 8.11623L18.1465 8.10456C18.0586 7.99369 17.9004 7.70193 17.8418 6.94335C17.7773 6.14976 17.8359 5.18694 17.8887 4.25914C17.9531 3.16795 18.0117 2.22848 17.877 1.55159L17.6543 0.454565C17.3789 0.407883 16.3828 0.0285921 13.623 -0.000584083C11.2324 -0.023925 10.5293 0.320354 10.1836 0.623787L9.04102 1.62745L10.4824 2.11177C11.0332 2.2985 11.2148 2.50857 11.3613 3.55891C11.4609 4.24747 11.5078 5.39701 11.4023 6.42401C11.25 7.90033 10.8867 8.17459 10.8691 8.18626C10.8047 8.16292 10.2773 7.93534 9.35742 5.99804C8.71875 4.65594 8.16211 3.06292 7.75195 1.90754C7.2832 0.577105 7.37109 0.863031 7.13086 0.232825H0L0.462891 1.42321C2.39062 6.389 4.1543 10.2636 6.52148 13.0528C9.13477 16.128 12.3809 17.7385 16.752 17.7385H17.6309V16.8633C17.6309 16.0463 17.7012 15.457 17.8418 15.0077C17.9297 14.7334 18.0469 14.5117 18.1758 14.2724C18.3574 13.9223 18.5391 13.7764 18.6387 13.7531C18.7266 13.7356 18.8848 13.7998 19.0605 13.9281C19.5586 14.3016 19.957 14.7859 20.3789 15.3052C20.9824 16.0522 21.6094 16.8224 22.6055 17.3242C23.1504 17.5985 24.1465 17.7385 24.6914 17.7385C24.8379 17.7385 30 17.7385 30.0059 17.7385L29.9707 16.8282C29.9062 15.4628 28.8281 13.7589 26.7598 11.7633ZM24.7207 15.988H24.709C24.334 15.9938 23.6133 15.8713 23.4023 15.7662C22.7402 15.4336 22.2773 14.8618 21.7441 14.2082C21.2754 13.6305 20.7891 13.0353 20.1152 12.5335C19.5703 12.125 19.0723 12.0083 18.6797 12.0083C18.5215 12.0083 18.3809 12.0258 18.2578 12.055C17.8008 12.1601 17.1445 12.4868 16.623 13.4671C16.4766 13.7472 16.3125 14.0623 16.1777 14.4766C16.0371 14.9085 15.9492 15.3869 15.9082 15.9705C12.6152 15.7837 10.043 14.4883 7.86914 11.9266C5.8418 9.54003 4.25391 6.21395 2.56641 1.9834C2.68945 1.9834 5.74219 1.9834 5.91797 1.9834C5.9707 2.13511 6.03516 2.30434 6.09375 2.48523C6.5332 3.73397 7.13672 5.44953 7.85156 6.91418C8.87109 9.00903 9.80273 9.94266 10.8691 9.94266C11.4023 9.94266 11.877 9.71509 12.252 9.29495C12.7793 8.68809 13.0898 7.68443 13.1895 6.23145C13.2715 5.08775 13.1953 3.94404 13.1074 3.31383C13.0312 2.7945 12.9258 2.25182 12.6738 1.76749C13.7637 1.72081 15.2285 1.79667 16.1543 1.93088C16.2363 2.38603 16.1836 3.28466 16.1309 4.15411C16.002 6.25479 15.8672 8.41967 16.9863 9.42916C17.1797 9.61006 17.3906 9.70342 17.3965 9.70925L17.9648 9.88431C18.1816 9.81429 19.4531 10.4562 21.8555 6.28397C22.623 4.9477 23.3438 3.4072 23.7305 2.3977C24.627 2.3977 27.6738 2.3977 28.0312 2.3977C27.5215 3.51223 26.3203 5.09358 25.5352 6.14976C24.8438 7.06006 24.252 7.85365 23.9062 8.46051C23.2617 9.58671 23.3672 10.5962 24.041 11.4832L24.0527 11.4948C24.4277 11.9675 25.3535 12.8486 25.5469 13.0295C26.9355 14.3774 27.6094 15.3403 27.9258 15.988H24.7207Z" fill="#562C2C"/>
</svg>
